<svg width="33" height="20" viewBox="0 0 33 20" fill="none" xmlns="http://www.w3.org/2000/svg">
<g clip-path="url(#clip0_1882_13854)">
<path d="M12.1624 2.13965H20.8061V17.8676H12.1624V2.13965Z" fill="#FF5F00"/>
<path d="M12.7111 10.0037C12.7111 6.8081 14.1929 3.97367 16.4704 2.13962C14.7966 0.805823 12.6837 0 10.3787 0C4.91787 0 0.5 4.4738 0.5 10.0037C0.5 15.5334 4.91787 20.0073 10.3786 20.0073C12.6836 20.0073 14.7965 19.2015 16.4704 17.8676C14.1929 16.0614 12.7111 13.1992 12.7111 10.0037Z" fill="#EB001B"/>
<path d="M32.4683 10.0037C32.4683 15.5334 28.0504 20.0073 22.5897 20.0073C20.2847 20.0073 18.1718 19.2015 16.4979 17.8676C18.8029 16.0337 20.2573 13.1992 20.2573 10.0037C20.2573 6.8081 18.7754 3.97367 16.4979 2.13962C18.1717 0.805823 20.2847 0 22.5897 0C28.0504 0 32.4684 4.50165 32.4684 10.0037H32.4683Z" fill="#F79E1B"/>
</g>
<defs>
<clipPath id="clip0_1882_13854">
<rect width="32" height="20" fill="white" transform="translate(0.5)"/>
</clipPath>
</defs>
</svg>
