<svg width="33" height="32" viewBox="0 0 33 32" fill="none" xmlns="http://www.w3.org/2000/svg">
<path d="M16.5 32C25.3366 32 32.5 24.8366 32.5 16C32.5 7.16344 25.3366 0 16.5 0C7.66344 0 0.5 7.16344 0.5 16C0.5 24.8366 7.66344 32 16.5 32Z" fill="#6099AC"/>
<path d="M16.5 32C25.3366 32 32.5 24.8366 32.5 16C32.5 7.16344 25.3366 0 16.5 0C7.66344 0 0.5 7.16344 0.5 16C0.5 24.8366 7.66344 32 16.5 32Z" fill="#6099AC"/>
<path fill-rule="evenodd" clip-rule="evenodd" d="M25.875 15.5C25.75 13.5 24 11.875 22 12H11.875C11.5 12 11.25 11.75 11.25 11.375C11.25 11 11.5 10.75 11.875 10.75H22.125C22.125 9.375 21.125 8.125 19.75 7.75C16.75 7.25 13.75 7.25 10.75 7.75C9 8.125 7.75 9.625 7.5 11.25C7 14.375 7 17.625 7.5 20.75C7.875 22.625 9.25 24 11.125 24.25C14.875 24.75 18.625 24.75 22.25 24.25C23.875 23.875 25.125 22.5 25.375 20.875C25.75 19.125 25.875 17.375 25.875 15.5ZM22.5 17.75V18.375C22.5 18.75 22.25 19 21.875 19C21.5 19 21.25 18.75 21.25 18.375V17.75C21 17.625 20.875 17.25 20.875 17C20.875 16.5 21.375 16 21.875 16C22.375 16 22.875 16.5 22.875 17C22.875 17.25 22.75 17.5 22.5 17.75Z" fill="white"/>
</svg>
