<svg width="24" height="24" viewBox="0 0 24 24" fill="none" xmlns="http://www.w3.org/2000/svg">
<path d="M21.057 7.18114C21.0663 7.39235 21.0663 7.59395 21.0663 7.80515C21.0756 14.2084 16.3711 21.6004 7.76784 21.6004C5.23039 21.6004 2.73924 20.842 0.600006 19.4212C0.970437 19.4692 1.34087 19.4884 1.7113 19.4884C3.81349 19.4884 5.86012 18.7588 7.5178 17.4052C5.51747 17.3668 3.75793 16.0132 3.14672 14.0356C3.85053 14.1796 4.57287 14.1508 5.25817 13.9492C3.08189 13.5076 1.51682 11.5204 1.50756 9.20675C1.50756 9.18755 1.50756 9.16835 1.50756 9.14915C2.15581 9.52355 2.88741 9.73475 3.62828 9.75395C1.58165 8.33315 0.942654 5.50114 2.1836 3.28353C4.56361 6.31714 8.06418 8.15075 11.8241 8.35235C11.4444 6.67234 11.963 4.90594 13.1761 3.71553C15.0561 1.88193 18.0195 1.97793 19.7976 3.92673C20.844 3.71553 21.8535 3.31233 22.7703 2.74593C22.4184 3.86913 21.6868 4.81954 20.7144 5.42434C21.6405 5.30914 22.548 5.04994 23.4 4.66594C22.7703 5.64514 21.9738 6.48994 21.057 7.18114Z" fill="white"/>
</svg>
