<svg width="40" height="41" viewBox="0 0 40 41" fill="none" xmlns="http://www.w3.org/2000/svg">
<path d="M40 20.48C40 9.45 31.04 0.5 20 0.5C8.96 0.5 0 9.45 0 20.48C0 26.555 2.76 32.03 7.08 35.705C7.12 35.745 7.16 35.745 7.16 35.785C7.52 36.065 7.88 36.345 8.28 36.625C8.48 36.745 8.64 36.9025 8.84 37.0625C12.1452 39.3034 16.0468 40.5009 20.04 40.5C24.0332 40.5009 27.9348 39.3034 31.24 37.0625C31.44 36.9425 31.6 36.785 31.8 36.6625C32.16 36.385 32.56 36.105 32.92 35.825C32.96 35.785 33 35.785 33 35.745C37.24 32.0275 40 26.555 40 20.48ZM20 37.9825C16.24 37.9825 12.8 36.7825 9.96 34.785C10 34.465 10.08 34.1475 10.16 33.8275C10.3983 32.9603 10.7479 32.1275 11.2 31.35C11.64 30.59 12.16 29.91 12.8 29.31C13.4 28.71 14.12 28.1525 14.84 27.7125C15.6 27.2725 16.4 26.9525 17.28 26.7125C18.1668 26.4735 19.0815 26.3532 20 26.355C22.7266 26.3357 25.3531 27.3816 27.32 29.27C28.24 30.19 28.96 31.27 29.48 32.5075C29.76 33.2275 29.96 33.9875 30.08 34.785C27.1279 36.8604 23.6086 37.9768 20 37.9825ZM13.88 19.4825C13.5276 18.6756 13.3503 17.803 13.36 16.9225C13.36 16.045 13.52 15.165 13.88 14.365C14.24 13.565 14.72 12.8475 15.32 12.2475C15.92 11.6475 16.64 11.17 17.44 10.81C18.24 10.45 19.12 10.29 20 10.29C20.92 10.29 21.76 10.45 22.56 10.81C23.36 11.17 24.08 11.65 24.68 12.2475C25.28 12.8475 25.76 13.5675 26.12 14.365C26.48 15.165 26.64 16.045 26.64 16.9225C26.64 17.8425 26.48 18.6825 26.12 19.48C25.7726 20.2682 25.2846 20.9865 24.68 21.6C24.0663 22.2037 23.348 22.6908 22.56 23.0375C20.9071 23.7168 19.0529 23.7168 17.4 23.0375C16.612 22.6908 15.8937 22.2037 15.28 21.6C14.6745 20.9955 14.1982 20.2767 13.88 19.4825ZM32.44 32.7475C32.44 32.6675 32.4 32.6275 32.4 32.5475C32.0066 31.296 31.4267 30.1111 30.68 29.0325C29.9326 27.946 29.014 26.9877 27.96 26.195C27.1551 25.5894 26.2826 25.0794 25.36 24.675C25.7797 24.3981 26.1686 24.0771 26.52 23.7175C27.1164 23.1288 27.6401 22.4707 28.08 21.7575C28.9659 20.302 29.4234 18.6262 29.4 16.9225C29.4124 15.6613 29.1674 14.4108 28.68 13.2475C28.1988 12.1266 27.5062 11.1089 26.64 10.25C25.7751 9.40008 24.7572 8.72147 23.64 8.25C22.4748 7.76348 21.2227 7.51936 19.96 7.5325C18.6972 7.52015 17.4451 7.76513 16.28 8.2525C15.1531 8.72297 14.1328 9.41596 13.28 10.29C12.4301 11.154 11.7515 12.171 11.28 13.2875C10.7926 14.4508 10.5476 15.7013 10.56 16.9625C10.56 17.8425 10.68 18.6825 10.92 19.48C11.16 20.32 11.48 21.08 11.92 21.7975C12.32 22.5175 12.88 23.1575 13.48 23.7575C13.84 24.1175 14.24 24.435 14.68 24.715C13.7546 25.1302 12.8818 25.6538 12.08 26.275C11.04 27.075 10.12 28.0325 9.36 29.0725C8.60565 30.1466 8.0252 31.3328 7.64 32.5875C7.6 32.6675 7.6 32.7475 7.6 32.7875C4.44 29.59 2.48 25.275 2.48 20.48C2.48 10.85 10.36 2.9775 20 2.9775C29.64 2.9775 37.52 10.85 37.52 20.48C37.5148 25.0799 35.6883 29.4906 32.44 32.7475Z" fill="#4D4133"/>
</svg>
