<svg width="80" height="80" viewBox="0 0 80 80" fill="none" xmlns="http://www.w3.org/2000/svg">
<g opacity="0.8">
<path d="M30 56.6673C32.8333 54.5673 36.2833 53.334 40 53.334C43.7167 53.334 47.1667 54.5673 50 56.6673" stroke="#06222B" stroke-width="1.5" stroke-linecap="round"/>
<path d="M49.9998 40C51.8408 40 53.3332 37.7614 53.3332 35C53.3332 32.2386 51.8408 30 49.9998 30C48.1589 30 46.6665 32.2386 46.6665 35C46.6665 37.7614 48.1589 40 49.9998 40Z" fill="#06222B"/>
<path d="M29.9998 40C31.8408 40 33.3332 37.7614 33.3332 35C33.3332 32.2386 31.8408 30 29.9998 30C28.1589 30 26.6665 32.2386 26.6665 35C26.6665 37.7614 28.1589 40 29.9998 40Z" fill="#06222B"/>
<path d="M6.6665 40.0003C6.6665 24.287 6.6665 16.4303 11.5465 11.547C16.4332 6.66699 24.2865 6.66699 39.9998 6.66699C55.7132 6.66699 63.5698 6.66699 68.4498 11.547C73.3332 16.4337 73.3332 24.287 73.3332 40.0003C73.3332 55.7137 73.3332 63.5703 68.4498 68.4503C63.5732 73.3337 55.7132 73.3337 39.9998 73.3337C24.2865 73.3337 16.4298 73.3337 11.5465 68.4503C6.6665 63.5737 6.6665 55.7137 6.6665 40.0003Z" stroke="#06222B" stroke-width="1.5"/>
</g>
</svg>
