<svg width="18" height="18" viewBox="0 0 18 18" fill="none" xmlns="http://www.w3.org/2000/svg">
<path fill-rule="evenodd" clip-rule="evenodd" d="M4.7821 1.17349C5.59094 0.838454 6.45784 0.666016 7.33332 0.666016C8.2088 0.666016 9.07571 0.838454 9.88455 1.17349C10.6934 1.50852 11.4283 1.99958 12.0474 2.61864C12.6664 3.23769 13.1575 3.97262 13.4925 4.78146C13.8276 5.5903 14 6.4572 14 7.33268C14 8.20816 13.8276 9.07507 13.4925 9.88391C13.2643 10.4348 12.9638 10.9514 12.5997 11.4205L17.0892 15.9101C17.4147 16.2355 17.4147 16.7632 17.0892 17.0886C16.7638 17.414 16.2362 17.414 15.9107 17.0886L11.4211 12.599C10.9521 12.9631 10.4355 13.2637 9.88455 13.4919C9.07571 13.8269 8.2088 13.9993 7.33332 13.9993C6.45784 13.9993 5.59094 13.8269 4.7821 13.4919C3.97326 13.1568 3.23833 12.6658 2.61928 12.0467C2.00022 11.4277 1.50916 10.6927 1.17413 9.88391C0.839095 9.07507 0.666656 8.20816 0.666656 7.33268C0.666656 6.4572 0.839095 5.5903 1.17413 4.78146C1.50916 3.97262 2.00022 3.23769 2.61928 2.61864C3.23834 1.99958 3.97326 1.50852 4.7821 1.17349ZM7.33332 2.33268C6.67671 2.33268 6.02653 2.46201 5.41991 2.71328C4.81328 2.96456 4.26208 3.33286 3.79779 3.79715C3.3335 4.26144 2.9652 4.81264 2.71393 5.41927C2.46265 6.02589 2.33332 6.67607 2.33332 7.33268C2.33332 7.98929 2.46265 8.63947 2.71393 9.2461C2.9652 9.85273 3.3335 10.4039 3.79779 10.8682C4.26208 11.3325 4.81328 11.7008 5.41991 11.9521C6.02653 12.2034 6.67671 12.3327 7.33332 12.3327C7.98993 12.3327 8.64011 12.2034 9.24674 11.9521C9.85337 11.7008 10.4046 11.3325 10.8689 10.8682C11.3332 10.4039 11.7014 9.85273 11.9527 9.2461C12.204 8.63947 12.3333 7.98929 12.3333 7.33268C12.3333 6.67607 12.204 6.02589 11.9527 5.41927C11.7014 4.81264 11.3332 4.26144 10.8689 3.79715C10.4046 3.33286 9.85337 2.96456 9.24674 2.71328C8.64011 2.46201 7.98993 2.33268 7.33332 2.33268Z" fill="#ACADB1"/>
</svg>
